<svg width="40" height="40" viewBox="0 0 40 40" fill="none" xmlns="http://www.w3.org/2000/svg">
<g id="Arrow_left">
<circle id="Ellipse 5" cx="20" cy="20" r="20" fill="#1F2229" fill-opacity="0.3"/>
<path id="back" fill-rule="evenodd" clip-rule="evenodd" d="M27.8184 19.323H14.3431L18.7823 15.2368C18.9057 15.1221 18.9813 14.9661 18.9813 14.7943C18.9813 14.6225 18.9053 14.4665 18.7819 14.3514C18.661 14.2388 18.4905 14.1687 18.3013 14.1687C18.1121 14.1687 17.9417 14.2388 17.8207 14.3514L12.1989 19.527C12.0759 19.6418 12 19.7977 12 19.9692C12 20.1406 12.0759 20.2966 12.1993 20.4117L17.7756 25.5451C17.8966 25.6585 18.0671 25.7289 18.2563 25.7289C18.4454 25.7289 18.6159 25.6585 18.7369 25.5451C18.8603 25.43 18.9362 25.274 18.9362 25.1026C18.9362 24.9311 18.8603 24.7752 18.7369 24.66L14.298 20.5735H27.818C28.1972 20.5626 28.5 20.2868 28.5 19.9479C28.5 19.6089 28.1972 19.3332 27.8192 19.3223L27.8184 19.323Z" fill="white"/>
</g>
</svg>
