<svg width="16" height="16" viewBox="0 0 16 16" fill="none" xmlns="http://www.w3.org/2000/svg">
<g id="location">
<path id="Subtract" fill-rule="evenodd" clip-rule="evenodd" d="M9.29777 13.3879C12.2655 9.71519 13.1998 8.559 13.1998 6.0823C13.1998 3.27543 10.8717 1 7.9998 1C5.12792 1 2.7998 3.27543 2.7998 6.0823C2.7998 8.55898 3.73408 9.71517 6.70174 13.3877C7.09742 13.8774 7.52923 14.4118 7.9998 15C8.47034 14.4118 8.90212 13.8775 9.29777 13.3879ZM7.9998 8.8C9.43575 8.8 10.5998 7.63594 10.5998 6.2C10.5998 4.76406 9.43575 3.6 7.9998 3.6C6.56386 3.6 5.3998 4.76406 5.3998 6.2C5.3998 7.63594 6.56386 8.8 7.9998 8.8Z" fill="#1F2229"/>
</g>
</svg>
