<svg width="18" height="23" viewBox="0 0 18 23" fill="none" xmlns="http://www.w3.org/2000/svg">
<path fill-rule="evenodd" clip-rule="evenodd" d="M2.25 8.75C2.25 5.02208 5.27208 2 9 2C12.7279 2 15.75 5.02208 15.75 8.75C15.75 10.6287 15.1661 12.1392 13.96 13.8941C13.0002 15.2908 11.682 16.7949 9.98311 18.7333L9.9831 18.7333L9.98243 18.7341C9.66804 19.0928 9.34061 19.4664 9 19.857C8.65924 19.4663 8.33167 19.0925 8.01715 18.7336L8.0169 18.7333L8.01685 18.7333C6.31797 16.7948 4.99982 15.2908 4.03998 13.8941C2.83389 12.1392 2.25 10.6287 2.25 8.75ZM9 0.5C4.44365 0.5 0.75 4.19365 0.75 8.75C0.75 11.0135 1.47861 12.8155 2.80377 14.7437C3.81839 16.2201 5.21626 17.8147 6.92973 19.7692L6.92983 19.7694C7.40698 20.3136 7.9086 20.8859 8.43323 21.4912L9 22.1452L9.56677 21.4912C10.0914 20.8858 10.5931 20.3136 11.0703 19.7692C12.7837 17.8147 14.1816 16.2201 15.1962 14.7437C16.5214 12.8155 17.25 11.0135 17.25 8.75C17.25 4.19365 13.5563 0.5 9 0.5ZM6.75 8C6.75 6.75736 7.75736 5.75 9 5.75C10.2426 5.75 11.25 6.75736 11.25 8C11.25 9.24264 10.2426 10.25 9 10.25C7.75736 10.25 6.75 9.24264 6.75 8ZM9 4.25C6.92893 4.25 5.25 5.92893 5.25 8C5.25 10.0711 6.92893 11.75 9 11.75C11.0711 11.75 12.75 10.0711 12.75 8C12.75 5.92893 11.0711 4.25 9 4.25Z" fill="#1f2229"/>
</svg>
